HIERARCHY
ROOT Hips
{
 OFFSET 0.000000 0.000000 0.000000
 CHANNELS 6 Xposition Yposition Zposition Yrotation Xrotation Zrotation
 JOINT Chest
 {
  OFFSET 0.000000 10.932484 0.001155
  CHANNELS 3 Yrotation Xrotation Zrotation
  JOINT Chest2
  {
   OFFSET 0.000000 12.093805 -0.002099
   CHANNELS 3 Yrotation Xrotation Zrotation
   JOINT Chest3
   {
    OFFSET 0.000000 10.927800 0.000000
    CHANNELS 3 Yrotation Xrotation Zrotation
    JOINT Chest4
    {
     OFFSET 0.000000 10.927800 0.000000
     CHANNELS 3 Yrotation Xrotation Zrotation
     JOINT Neck
     {
      OFFSET 0.000000 15.355144 0.000000
      CHANNELS 3 Yrotation Xrotation Zrotation
      JOINT Head
      {
       OFFSET 0.000000 10.170446 -0.004991
       CHANNELS 3 Yrotation Xrotation Zrotation
       End Site
       {
        OFFSET 0.000000 19.463738 -0.002607
       }
      }
     }
     JOINT RightCollar
     {
      OFFSET -3.333126 8.566406 0.000000
      CHANNELS 3 Yrotation Xrotation Zrotation
      JOINT RightShoulder
      {
       OFFSET -15.529370 0.000000 0.000000
       CHANNELS 3 Yrotation Xrotation Zrotation
       JOINT RightElbow
       {
        OFFSET 0.000000 -33.145213 0.000000
        CHANNELS 3 Yrotation Xrotation Zrotation
        JOINT RightWrist
        {
         OFFSET 0.000000 -27.120720 -0.000000
         CHANNELS 3 Yrotation Xrotation Zrotation
         End Site
         {
          OFFSET 0.000000 -20.306483 0.000000
         }
        }
       }
      }
     }
     JOINT LeftCollar
     {
      OFFSET 3.333126 8.566406 0.000000
      CHANNELS 3 Yrotation Xrotation Zrotation
      JOINT LeftShoulder
      {
       OFFSET 15.529370 0.000000 0.000000
       CHANNELS 3 Yrotation Xrotation Zrotation
       JOINT LeftElbow
       {
        OFFSET 0.000000 -33.145213 0.000000
        CHANNELS 3 Yrotation Xrotation Zrotation
        JOINT LeftWrist
        {
         OFFSET 0.000000 -27.120720 -0.000000
         CHANNELS 3 Yrotation Xrotation Zrotation
         End Site
         {
          OFFSET 0.000000 -20.306483 0.000000
         }
        }
       }
      }
     }
    }
   }
  }
 }
 JOINT RightHip
 {
  OFFSET -8.869179 -0.005661 -0.000578
  CHANNELS 3 Yrotation Xrotation Zrotation
  JOINT RightKnee
  {
   OFFSET 0.000000 -45.835245 0.000547
   CHANNELS 3 Yrotation Xrotation Zrotation
   JOINT RightAnkle
   {
    OFFSET 0.000000 -44.890236 0.000924
    CHANNELS 3 Yrotation Xrotation Zrotation
    JOINT RightToe
    {
     OFFSET 0.000000 -8.082775 18.351045
     CHANNELS 3 Yrotation Xrotation Zrotation
     End Site
     {
      OFFSET 0.000000 -1.681997 7.345339
     }
    }
   }
  }
 }
 JOINT LeftHip
 {
  OFFSET 8.869179 -0.005661 -0.000578
  CHANNELS 3 Yrotation Xrotation Zrotation
  JOINT LeftKnee
  {
   OFFSET 0.000000 -45.835245 0.000547
   CHANNELS 3 Yrotation Xrotation Zrotation
   JOINT LeftAnkle
   {
    OFFSET 0.000000 -44.890236 0.000924
    CHANNELS 3 Yrotation Xrotation Zrotation
    JOINT LeftToe
    {
     OFFSET 0.000000 -8.082775 18.351045
     CHANNELS 3 Yrotation Xrotation Zrotation
     End Site
     {
      OFFSET 0.000000 -1.681997 7.345339
     }
    }
   }
  }
 }
}
MOTION
Frames: 16
Frame Time: 0.008333
269.915010 99.782796 218.026964 -38.379725 -2.238789 -2.509872 -0.598942 6.217917 -0.196268 -0.255944 2.757662 -0.097717 -0.255944 2.757662 -0.097717 -0.191480 2.068288 -0.072118 -3.829854 14.955416 0.552271 -7.384531 -8.281792 2.485087 -5.930832 0.264426 8.144002 -0.634515 -5.515748 -14.421640 6.297569 -11.587921 5.046049 26.854038 -1.258793 -22.074321 0.219739 -0.829059 -6.347796 -9.725007 -11.404808 20.281095 -5.536406 -8.013093 8.381326 -15.809953 -12.335545 0.822467 -14.351114 -1.108192 2.036382 3.251902 12.959191 0.325873 -0.651363 -9.090875 -2.525449 0.002885 0.152521 0.070235 16.733851 -10.168713 6.755178 -5.046250 24.015255 -2.749415 11.141296 -11.353470 -1.462922 -0.018150 -0.268935 -0.097968
269.812900 99.786178 217.800880 -38.118263 -2.176096 -2.511182 -0.639789 6.246217 -0.169909 -0.276020 2.770838 -0.083389 -0.276020 2.770838 -0.083389 -0.206596 2.078167 -0.061277 -3.845729 14.936090 0.562377 -7.419126 -8.316017 2.511255 -5.963385 0.252741 8.116475 -0.562376 -5.583141 -14.474334 6.276733 -11.512757 4.972905 26.766255 -1.270802 -22.190545 0.179568 -0.823949 -6.390065 -9.776584 -11.424039 20.242666 -5.469724 -8.138636 8.292787 -15.796802 -12.423582 0.982410 -14.239657 -1.287677 2.150755 3.056640 13.065976 0.362376 -0.773143 -9.049281 -2.622127 0.003819 0.117401 0.041330 16.806181 -10.525681 6.731160 -5.037172 24.380817 -2.749653 10.775035 -11.523940 -1.472240 -0.011604 -0.155986 -0.027572
269.795744 99.791360 217.573828 -37.850875 -2.127763 -2.506812 -0.681562 6.276155 -0.143244 -0.296317 2.785139 -0.070552 -0.296317 2.785139 -0.070552 -0.221872 2.088889 -0.051553 -3.859118 14.923605 0.572251 -7.448614 -8.337709 2.535607 -5.990909 0.252726 8.094050 -0.493161 -5.647310 -14.529202 6.258121 -11.427683 4.881532 26.681334 -1.276597 -22.314717 0.143921 -0.813902 -6.429323 -9.828466 -11.452896 20.209807 -5.453266 -8.205271 8.284561 -15.777126 -12.604708 1.134543 -14.122730 -1.453710 2.254121 2.841044 13.173849 0.386448 -0.885498 -9.007588 -2.704826 0.006120 0.081828 0.015617 16.893543 -10.837952 6.706385 -5.066725 24.735468 -2.796869 10.368594 -11.739466 -1.593056 -0.006226 -0.055513 0.153941
269.782869 99.796997 217.354614 -37.610833 -2.096133 -2.498222 -0.713628 6.313787 -0.119887 -0.314035 2.800979 -0.059023 -0.314035 2.800979 -0.059023 -0.235209 2.100765 -0.042818 -3.874552 14.914372 0.581190 -7.481409 -8.353303 2.558769 -6.021297 0.251792 8.071896 -0.428073 -5.726900 -14.575322 6.245866 -11.331806 4.773572 26.618600 -1.271445 -22.449876 0.096858 -0.799893 -6.470134 -9.882821 -11.473828 20.158872 -5.414307 -8.272739 8.267598 -15.824763 -12.787356 1.330714 -14.005924 -1.605784 2.341006 2.625964 13.278238 0.414574 -0.983313 -8.964345 -2.783126 0.009124 0.049836 -0.007460 17.043222 -11.100690 6.669242 -5.136345 25.085238 -2.861307 9.939110 -12.004770 -1.778297 0.002129 0.034392 0.371188
269.775983 99.803528 217.143811 -37.381336 -2.072343 -2.474664 -0.746004 6.352665 -0.105286 -0.330519 2.817768 -0.048929 -0.330519 2.817768 -0.048929 -0.247613 2.113353 -0.035164 -3.886761 14.907390 0.586489 -7.506665 -8.365161 2.573755 -6.038160 0.248320 8.053548 -0.356370 -5.787110 -14.625566 6.230431 -11.232752 4.654633 26.573614 -1.276864 -22.598903 0.059311 -0.788822 -6.513292 -9.938152 -11.491926 20.113029 -5.428048 -8.309230 8.316081 -15.862388 -13.018666 1.538379 -13.905896 -1.752747 2.413030 2.405711 13.382000 0.427534 -1.109576 -8.923009 -2.840930 0.011482 0.020531 -0.029618 17.234002 -11.326508 6.603319 -5.259402 25.435570 -2.950168 9.483353 -12.292750 -1.900769 0.005320 0.097884 0.521068
269.771591 99.810764 216.938085 -37.174924 -2.060228 -2.441998 -0.769786 6.397625 -0.101834 -0.344637 2.835108 -0.041199 -0.344637 2.835108 -0.041199 -0.258234 2.126355 -0.029293 -3.899403 14.904656 0.594977 -7.533707 -8.368888 2.594590 -6.059847 0.247019 8.043172 -0.281133 -5.862115 -14.670123 6.219009 -11.126271 4.516919 26.559373 -1.281591 -22.755437 0.023803 -0.775769 -6.551869 -9.985408 -11.506644 20.052323 -5.454376 -8.344959 8.359641 -15.954147 -13.218185 1.771810 -13.820615 -1.889945 2.468935 2.186947 13.479830 0.432774 -1.169212 -8.877924 -2.898388 0.016680 -0.004178 -0.047175 17.484650 -11.505321 6.505209 -5.452030 25.795684 -3.054022 9.091744 -12.578034 -1.953797 0.002301 0.111110 0.591955
269.766082 99.820155 216.736466 -36.974413 -2.054522 -2.403349 -0.795514 6.443290 -0.100779 -0.358535 2.853092 -0.034842 -0.358535 2.853092 -0.034842 -0.268683 2.139840 -0.024451 -3.911085 14.905024 0.602399 -7.558375 -8.366988 2.612856 -6.068031 0.250702 8.038911 -0.212027 -5.937925 -14.721289 6.207150 -11.025442 4.362695 26.574923 -1.283026 -22.906578 0.002531 -0.762477 -6.584733 -10.023378 -11.523052 19.979761 -5.543552 -8.363107 8.463400 -16.036657 -13.434358 2.012878 -13.776471 -2.005907 2.523904 1.992746 13.550274 0.416341 -1.195251 -8.820747 -2.946240 0.021816 -0.025703 -0.061952 17.773374 -11.634961 6.368888 -5.711536 26.146779 -3.150857 8.762877 -12.850725 -1.971848 -0.002206 0.087937 0.618200
269.763707 99.830260 216.537437 -36.795064 -2.047877 -2.364840 -0.814200 6.488793 -0.101055 -0.368752 2.871678 -0.030125 -0.368752 2.871678 -0.030125 -0.276365 2.153778 -0.020855 -3.921437 14.906378 0.610172 -7.580628 -8.363311 2.631211 -6.082143 0.249254 8.032467 -0.149531 -6.020372 -14.757593 6.204974 -10.924356 4.194155 26.604303 -1.289148 -23.063341 -0.022257 -0.753427 -6.616356 -10.063911 -11.521942 19.909181 -5.634303 -8.407468 8.540509 -16.144996 -13.573093 2.269102 -13.763617 -2.115091 2.579798 1.840915 13.604414 0.404763 -1.270433 -8.755452 -2.987428 0.026049 -0.045044 -0.076212 18.133654 -11.725992 6.188157 -6.024056 26.489363 -3.219838 8.544158 -13.107594 -2.014004 -0.006099 0.036074 0.642042
269.758085 99.841385 216.342018 -36.618210 -2.035597 -2.328957 -0.839361 6.527126 -0.099755 -0.378615 2.888927 -0.027236 -0.378615 2.888927 -0.027236 -0.283772 2.166713 -0.018632 -3.926016 14.916738 0.619453 -7.592134 -8.343167 2.649594 -6.088867 0.261009 8.026334 -0.106110 -6.107232 -14.786454 6.204860 -10.829271 4.032936 26.647839 -1.293273 -23.221616 -0.046541 -0.735807 -6.633269 -10.091540 -11.526727 19.835175 -5.747882 -8.429327 8.659534 -16.227717 -13.733948 2.515565 -13.801135 -2.208629 2.637595 1.725857 13.624759 0.389250 -1.280369 -8.675032 -3.031860 0.028051 -0.060632 -0.088733 18.530332 -11.789127 5.977031 -6.354372 26.811264 -3.258928 8.274150 -13.362634 -2.038159 -0.003227 -0.016083 0.656733
269.753458 99.853362 216.152518 -36.453155 -2.017278 -2.299292 -0.860193 6.561213 -0.096180 -0.386096 2.904991 -0.024799 -0.386096 2.904991 -0.024799 -0.289392 2.178760 -0.016759 -3.932315 14.929189 0.624446 -7.605116 -8.319345 2.660452 -6.094751 0.269945 8.015717 -0.072782 -6.192531 -14.795647 6.202752 -10.755535 3.877519 26.687097 -1.275228 -23.385813 -0.065690 -0.708947 -6.656618 -10.114747 -11.530911 19.753442 -5.863027 -8.475512 8.729926 -16.343902 -13.812629 2.794780 -13.894825 -2.283113 2.701052 1.681828 13.607214 0.383440 -1.331634 -8.582142 -3.073269 0.027350 -0.071516 -0.100658 18.937377 -11.833774 5.748908 -6.655683 27.129832 -3.263335 7.932525 -13.614546 -2.017161 0.002241 -0.074032 0.642769
269.751213 99.865921 215.971360 -36.291555 -1.987453 -2.273394 -0.880842 6.587440 -0.093331 -0.391648 2.918925 -0.024173 -0.391648 2.918925 -0.024173 -0.293557 2.189210 -0.016254 -3.932955 14.944432 0.633043 -7.608703 -8.290430 2.675732 -6.090183 0.286976 8.013411 -0.057636 -6.277244 -14.806461 6.195484 -10.699663 3.740650 26.709611 -1.260295 -23.565374 -0.073116 -0.678500 -6.665435 -10.153392 -11.540831 19.680862 -5.969088 -8.492550 8.828738 -16.444268 -13.916132 3.064327 -14.045236 -2.348591 2.775794 1.695112 13.564398 0.370054 -1.448702 -8.481886 -3.096927 0.023599 -0.081982 -0.113442 19.311870 -11.873646 5.525730 -6.899685 27.441517 -3.254878 7.787208 -13.839991 -1.987822 0.012836 -0.137035 0.586018
269.746826 99.878495 215.796790 -36.142065 -1.951791 -2.250679 -0.895349 6.612395 -0.089727 -0.395192 2.931252 -0.023783 -0.395192 2.931252 -0.023783 -0.296215 2.198455 -0.015937 -3.940021 14.959672 0.639625 -7.623555 -8.261274 2.689651 -6.087367 0.298363 8.015483 -0.061676 -6.356455 -14.807676 6.182808 -10.666995 3.625719 26.719065 -1.243389 -23.772449 -0.086490 -0.649439 -6.677042 -10.188032 -11.534381 19.607230 -6.045664 -8.545009 8.852303 -16.571474 -13.945664 3.376044 -14.236328 -2.407879 2.843970 1.766617 13.507199 0.369706 -1.500017 -8.378926 -3.124959 0.020353 -0.087782 -0.127654 19.654597 -11.904397 5.312357 -7.101221 27.749473 -3.244722 7.620677 -14.040484 -1.883454 0.021840 -0.214017 0.485718
269.742025 99.889430 215.629865 -35.998121 -1.904012 -2.231383 -0.909227 6.633647 -0.086312 -0.398239 2.941304 -0.022943 -0.398239 2.941304 -0.022943 -0.298503 2.205994 -0.015285 -3.941350 14.978842 0.645152 -7.627042 -8.225252 2.699168 -6.069831 0.311516 8.016126 -0.078667 -6.423893 -14.817385 6.140995 -10.650023 3.550156 26.718674 -1.242053 -24.005409 -0.097132 -0.624546 -6.677534 -10.208973 -11.532347 19.547032 -6.145596 -8.578124 8.913547 -16.646220 -14.013131 3.661847 -14.453403 -2.461810 2.911374 1.878855 13.428013 0.379086 -1.568071 -8.276429 -3.140479 0.014786 -0.088433 -0.148105 19.952845 -11.945138 5.119019 -7.282054 28.066216 -3.252964 7.374739 -14.213810 -1.707234 0.029717 -0.307625 0.366067
269.737717 99.897388 215.469744 -35.862874 -1.839525 -2.221543 -0.916490 6.649562 -0.078191 -0.398397 2.949313 -0.019930 -0.398397 2.949313 -0.019930 -0.298635 2.211999 -0.013020 -3.948819 14.995243 0.647405 -7.640944 -8.194225 2.705053 -6.061638 0.305196 8.013453 -0.112994 -6.483947 -14.812558 6.083303 -10.646056 3.501497 26.714790 -1.258131 -24.250871 -0.108490 -0.605384 -6.692578 -10.247425 -11.523975 19.496538 -6.205721 -8.635180 8.911918 -16.728996 -14.031788 3.982101 -14.696322 -2.525191 2.982387 2.022132 13.348859 0.399808 -1.628229 -8.184495 -3.145772 0.008959 -0.084653 -0.173842 20.198601 -12.004374 4.949067 -7.438519 28.391312 -3.280387 7.214853 -14.350897 -1.526323 0.034796 -0.415990 0.252466
269.732818 99.902387 215.319209 -35.722934 -1.762270 -2.216184 -0.924648 6.660295 -0.070336 -0.398672 2.955161 -0.017147 -0.398672 2.955161 -0.017147 -0.298855 2.216383 -0.010928 -3.952416 15.014079 0.649930 -7.647558 -8.158899 2.709824 -6.044735 0.306445 8.012995 -0.163281 -6.539418 -14.816664 6.010165 -10.664500 3.486343 26.681370 -1.292901 -24.483975 -0.102574 -0.593030 -6.699663 -10.297199 -11.520469 19.461202 -6.275467 -8.648847 8.969741 -16.758401 -14.139645 4.222205 -14.955262 -2.592042 3.042731 2.177777 13.264566 0.440063 -1.643385 -8.101624 -3.146356 0.002802 -0.077119 -0.204362 20.392311 -12.077916 4.800047 -7.587956 28.717280 -3.330235 7.082562 -14.468899 -1.351088 0.039870 -0.519192 0.162696
269.730528 99.903098 215.176559 -35.595778 -1.673949 -2.218899 -0.925851 6.667620 -0.062158 -0.396755 2.959509 -0.013351 -0.396755 2.959509 -0.013351 -0.297436 2.219641 -0.008088 -3.959218 15.030893 0.653827 -7.660801 -8.127028 2.718497 -6.046566 0.298755 8.017326 -0.211042 -6.593810 -14.810298 5.934808 -10.695851 3.490931 26.614282 -1.347484 -24.719815 -0.113275 -0.588181 -6.704779 -10.335434 -11.501453 19.429862 -6.323902 -8.693359 8.975759 -16.821569 -14.216269 4.452586 -15.217664 -2.678275 3.111942 2.347376 13.208143 0.482475 -1.699752 -8.041687 -3.129329 -0.001887 -0.070377 -0.236689 20.533446 -12.172128 4.669991 -7.712783 29.063285 -3.387303 6.964336 -14.573339 -1.209421 0.040851 -0.623238 0.110792
